<svg width="102" height="74" viewBox="0 0 102 74" fill="none" xmlns="http://www.w3.org/2000/svg">
<path d="M23.3 43.6C23.3 45.2667 26.3333 46.8667 32.4 48.4C35.8667 49.2 40.0667 49.8667 45 50.4C38.8 44.8667 32.6667 42.1 26.6 42.1C24.4 42.1 23.3 42.6 23.3 43.6ZM62.9 70.3C64.3 70.3 67.7667 64.8 73.3 53.8C65.8333 53.9333 61.1667 54 59.3 54C57.5 54 54.9333 53.9333 51.6 53.8C55.5333 58.5333 58.7333 63.5667 61.2 68.9C61.6 69.8333 62.1667 70.3 62.9 70.3ZM94.2 2.6C92 2.6 89.0667 4.96667 85.4 9.7C81.7333 14.3667 76.8667 21 70.8 29.6C64.8 38.2 59.2 45.3333 54 51C58.6667 51.1333 62.7333 51.2 66.2 51.2C69.7333 51.2 72.5667 51.1333 74.7 51C79.4333 41.6667 84.0333 31.8 88.5 21.4C93.0333 11 95.3 5.03334 95.3 3.5C95.3 2.9 94.9333 2.6 94.2 2.6ZM80.1 50.8L100.9 49.3C101.433 49.3 101.7 49.5667 101.7 50.1C101.7 50.6333 101.233 51.2 100.3 51.8C99.4333 52.4 97.7 52.8 95.1 53C92.5 53.2 87 53.4 78.6 53.6C71.8 66.8667 67 73.5 64.2 73.5C62.3333 73.5 61 72.6667 60.2 71C57.2667 65.0667 53.8333 59.8667 49.9 55.4L47 58.2C37.1333 67.4 25.6333 72 12.5 72C9.16667 72 6.26667 71.7333 3.8 71.2C1.26667 70.7333 0 70.0667 0 69.2C0 68.6 0.366667 68.3 1.1 68.3C1.56667 68.3 2.13333 68.4333 2.8 68.7C4.8 69.5 8.56667 69.9 14.1 69.9C24.0333 69.9 33.4333 66 42.3 58.2C45.5 55.2 47.1333 53.6667 47.2 53.6C40.9333 53.1333 35.6667 52.3 31.4 51.1C23.8 48.9667 20 46.4333 20 43.5C20 42.5 20.5333 41.6667 21.6 41C22.7333 40.3333 24.2 40 26 40C33.9333 40 41.4667 43.5667 48.6 50.7C49.2 50.7 49.6333 50.7333 49.9 50.8C55.8333 44.4 63.0667 35.3333 71.6 23.6C74.6 19.5333 77.6 15.6 80.6 11.8C86.8667 3.93333 92 0 96 0C98.6 0 99.9 1.13333 99.9 3.4C99.9 4.93333 97.7333 10.9333 93.4 21.4C89.1333 31.8 84.7 41.6 80.1 50.8Z" fill="white"/>
</svg>
