<svg width="167" height="74" viewBox="0 0 167 74" fill="none" xmlns="http://www.w3.org/2000/svg">
<path d="M23.1415 43.8034C23.1415 45.4587 26.1542 47.0478 32.1796 48.5707C35.6227 49.3653 39.7941 50.0274 44.6939 50.5571C38.5361 45.0615 32.4444 42.3136 26.419 42.3136C24.234 42.3136 23.1415 42.8102 23.1415 43.8034ZM62.4721 70.3218C63.8626 70.3218 67.3057 64.8592 72.8014 53.934C65.3855 54.0664 60.7506 54.1327 58.8966 54.1327C57.1088 54.1327 54.5596 54.0664 51.249 53.934C55.1556 58.6351 58.3338 63.6342 60.7837 68.9313C61.1809 69.8583 61.7438 70.3218 62.4721 70.3218ZM93.5592 3.08231C91.3741 3.08231 88.4608 5.43288 84.819 10.134C81.1773 14.7689 76.3438 21.3571 70.3184 29.8986C64.3592 38.4401 58.7973 45.5249 53.6326 51.1531C58.2676 51.2855 62.3066 51.3517 65.7497 51.3517C69.2589 51.3517 72.073 51.2855 74.1918 51.1531C78.893 41.8832 83.4617 32.0837 87.8979 21.7544C92.4004 11.4252 94.6517 5.4991 94.6517 3.97619C94.6517 3.38027 94.2875 3.08231 93.5592 3.08231ZM79.5551 50.9544L100.214 49.4646C100.743 49.4646 101.008 49.7295 101.008 50.2592C101.008 50.7889 100.545 51.3517 99.6177 51.9476C98.7569 52.5435 97.0354 52.9408 94.453 53.1395C91.8707 53.3381 86.4082 53.5367 78.0653 53.7354C71.3116 66.9118 66.5442 73.5 63.7633 73.5C61.9093 73.5 60.585 72.6723 59.7905 71.017C56.8771 65.124 53.4671 59.9594 49.5605 55.5231L46.6803 58.3041C36.8807 67.4415 25.459 72.0102 12.415 72.0102C9.10431 72.0102 6.22404 71.7454 3.77415 71.2156C1.25805 70.7522 0 70.09 0 69.2292C0 68.6333 0.364172 68.3354 1.09252 68.3354C1.55601 68.3354 2.11882 68.4678 2.78095 68.7327C4.76735 69.5272 8.50839 69.9245 14.0041 69.9245C23.8698 69.9245 33.2059 66.051 42.0122 58.3041C45.1905 55.3245 46.8127 53.8016 46.8789 53.7354C40.6549 53.2719 35.424 52.4442 31.1864 51.2524C23.6381 49.1336 19.8639 46.6175 19.8639 43.7041C19.8639 42.7109 20.3936 41.8832 21.4531 41.2211C22.5787 40.559 24.0354 40.2279 25.8231 40.2279C33.7025 40.2279 41.1846 43.7703 48.2694 50.8551C48.8653 50.8551 49.2957 50.8882 49.5605 50.9544C55.4535 44.598 62.6376 35.593 71.1129 23.9395C74.0925 19.9005 77.0721 15.9939 80.0517 12.2197C86.2757 4.40658 91.3741 0.5 95.3469 0.5C97.9292 0.5 99.2204 1.62562 99.2204 3.87687C99.2204 5.39977 97.0685 11.359 92.7646 21.7544C88.527 32.0837 84.1238 41.817 79.5551 50.9544Z" fill="white"/>
<path d="M111.119 41.0224C111.781 41.0224 112.278 41.2211 112.609 41.6184C113.006 42.0156 113.205 42.5785 113.205 43.3068C113.205 44.0351 112.708 44.9621 111.715 46.0878C110.722 47.2134 109.861 47.7762 109.133 47.7762C108.405 47.7762 107.875 47.5776 107.544 47.1803C107.213 46.7168 107.047 46.2202 107.047 45.6905C107.047 45.0946 107.577 44.1676 108.636 42.9095C109.696 41.6515 110.523 41.0224 111.119 41.0224ZM119.363 54.4306C119.893 54.0995 120.29 53.934 120.555 53.934C120.886 53.934 121.051 54.1327 121.051 54.5299V54.8279C121.316 54.8279 119.528 56.2846 115.688 59.198C111.914 62.1113 107.842 65.0247 103.472 67.9381C99.1679 70.8515 96.4531 72.3082 95.3275 72.3082C93.4073 72.3082 92.4473 71.5136 92.4473 69.9245C92.4473 68.0043 94.1026 64.3957 97.4132 59.0986C100.724 53.7354 103.141 51.0537 104.664 51.0537C105.789 51.0537 106.352 51.4841 106.352 52.3449C106.352 53.2057 104.829 55.5562 101.783 59.3966C98.7375 63.237 97.2146 65.9848 97.2146 67.6401C97.2146 68.5671 97.5457 69.0306 98.2078 69.0306C98.9361 69.0306 100.691 68.1036 103.472 66.2497C108.438 62.939 113.006 59.5952 117.178 56.2184L119.363 54.4306Z" fill="white"/>
<path d="M138.877 54.5299C139.407 54.1989 139.837 54.0333 140.168 54.0333C140.565 54.0333 140.764 54.2651 140.764 54.7286V54.9272C135.666 59.2311 130.269 63.2701 124.575 67.0442C118.947 70.8184 115.371 72.7054 113.848 72.7054C112.325 72.7054 111.034 72.4075 109.975 71.8116C108.982 71.2819 108.485 70.6528 108.485 69.9245C108.485 69.1961 108.684 68.6002 109.081 68.1367C109.478 67.607 109.842 67.3422 110.173 67.3422C110.505 67.3422 111.034 67.8719 111.763 68.9313C112.557 69.9245 113.319 70.4211 114.047 70.4211C115.57 70.4211 116.762 68.7989 117.622 65.5544C118.483 62.31 118.914 60.0918 118.914 58.9C118.914 57.6419 118.814 57.0129 118.616 57.0129C118.483 57.0129 118.351 57.0791 118.218 57.2116L115.338 59.4959L114.941 58.0061C119.112 54.6955 121.529 52.4773 122.191 51.3517C122.588 50.2923 123.151 49.7626 123.88 49.7626C124.343 49.7626 124.575 49.9281 124.575 50.2592C124.575 50.5902 124.343 51.3186 123.88 52.4442C123.416 53.5036 122.787 55.9535 121.993 59.7939C121.264 63.6342 120.9 65.8524 120.9 66.4483C120.9 67.0442 121.066 67.3422 121.397 67.3422C126.032 64.495 130.931 60.9526 136.096 56.715L138.877 54.5299Z" fill="white"/>
<path d="M164.523 54.5299C164.987 54.1989 165.417 54.0333 165.814 54.0333C166.212 54.0333 166.41 54.2651 166.41 54.7286V54.9272C159.524 60.6215 153.797 64.8923 149.228 67.7395C144.659 70.5866 140.521 72.0102 136.813 72.0102C133.833 72.0102 132.344 70.5535 132.344 67.6401C132.344 63.3363 134.529 58.9331 138.899 54.4306C143.269 49.8619 146.944 47.5775 149.923 47.5775C151.578 47.5775 152.406 48.5045 152.406 50.3585C152.075 54.0002 146.844 58.9 136.714 65.0578V66.051C136.714 68.236 137.839 69.3286 140.09 69.3286C142.408 69.3286 144.891 68.5671 147.539 67.0442C152.704 63.9984 157.538 60.5222 162.04 56.6156L164.523 54.5299ZM147.341 50.6565C145.884 50.6565 143.997 51.8814 141.68 54.3313C139.428 56.7812 137.905 59.5621 137.111 62.6741C140.289 60.754 142.971 58.7345 145.156 56.6156C147.341 54.4306 148.433 52.9077 148.433 52.0469C148.433 51.12 148.069 50.6565 147.341 50.6565Z" fill="white"/>
</svg>
