<svg width="167" height="73" viewBox="0 0 167 73" fill="none" xmlns="http://www.w3.org/2000/svg">
<path d="M23.1415 43.3034C23.1415 44.9587 26.1542 46.5478 32.1796 48.0707C35.6227 48.8653 39.7941 49.5274 44.6939 50.0571C38.5361 44.5614 32.4444 41.8136 26.419 41.8136C24.234 41.8136 23.1415 42.3102 23.1415 43.3034ZM62.4721 69.8218C63.8626 69.8218 67.3057 64.3592 72.8014 53.434C65.3855 53.5664 60.7506 53.6327 58.8966 53.6327C57.1088 53.6327 54.5596 53.5664 51.249 53.434C55.1556 58.1351 58.3338 63.1342 60.7837 68.4313C61.1809 69.3583 61.7438 69.8218 62.4721 69.8218ZM93.5592 2.58232C91.3741 2.58232 88.4608 4.93288 84.819 9.63401C81.1773 14.2689 76.3438 20.8571 70.3184 29.3986C64.3592 37.9401 58.7973 45.0249 53.6326 50.6531C58.2676 50.7855 62.3066 50.8517 65.7497 50.8517C69.259 50.8517 72.073 50.7855 74.1918 50.6531C78.893 41.3832 83.4617 31.5837 87.8979 21.2544C92.4004 10.9252 94.6517 4.9991 94.6517 3.47619C94.6517 2.88027 94.2875 2.58232 93.5592 2.58232ZM79.5551 50.4544L100.214 48.9646C100.743 48.9646 101.008 49.2295 101.008 49.7592C101.008 50.2889 100.545 50.8517 99.6177 51.4476C98.7569 52.0435 97.0354 52.4408 94.453 52.6395C91.8707 52.8381 86.4082 53.0367 78.0653 53.2354C71.3116 66.4118 66.5442 73 63.7633 73C61.9093 73 60.585 72.1723 59.7905 70.517C56.8771 64.624 53.4671 59.4594 49.5605 55.0231L46.6803 57.8041C36.8807 66.9415 25.459 71.5102 12.415 71.5102C9.10431 71.5102 6.22404 71.2454 3.77415 70.7156C1.25805 70.2522 0 69.59 0 68.7293C0 68.1333 0.364172 67.8354 1.09252 67.8354C1.55601 67.8354 2.11882 67.9678 2.78095 68.2327C4.76735 69.0272 8.50839 69.4245 14.0041 69.4245C23.8698 69.4245 33.2059 65.551 42.0122 57.8041C45.1905 54.8245 46.8127 53.3016 46.8789 53.2354C40.6549 52.7719 35.424 51.9442 31.1864 50.7524C23.6381 48.6336 19.8639 46.1175 19.8639 43.2041C19.8639 42.2109 20.3936 41.3832 21.4531 40.7211C22.5787 40.059 24.0354 39.7279 25.8231 39.7279C33.7025 39.7279 41.1846 43.2703 48.2694 50.3551C48.8653 50.3551 49.2957 50.3882 49.5605 50.4544C55.4535 44.098 62.6376 35.093 71.1129 23.4395C74.0925 19.4005 77.0721 15.4939 80.0517 11.7197C86.2757 3.90658 91.3741 0 95.3469 0C97.9292 0 99.2204 1.12562 99.2204 3.37687C99.2204 4.89977 97.0685 10.859 92.7646 21.2544C88.527 31.5837 84.1238 41.317 79.5551 50.4544Z" fill="#222222"/>
<path d="M111.119 40.5224C111.781 40.5224 112.278 40.7211 112.609 41.1184C113.006 41.5156 113.205 42.0785 113.205 42.8068C113.205 43.5351 112.708 44.4621 111.715 45.5878C110.722 46.7134 109.861 47.2762 109.133 47.2762C108.405 47.2762 107.875 47.0776 107.544 46.6803C107.213 46.2168 107.047 45.7202 107.047 45.1905C107.047 44.5946 107.577 43.6676 108.636 42.4095C109.696 41.1515 110.523 40.5224 111.119 40.5224ZM119.363 53.9306C119.893 53.5995 120.29 53.434 120.555 53.434C120.886 53.434 121.051 53.6327 121.051 54.0299V54.3279C121.316 54.3279 119.528 55.7846 115.688 58.698C111.914 61.6113 107.842 64.5247 103.472 67.4381C99.1679 70.3515 96.4532 71.8082 95.3275 71.8082C93.4073 71.8082 92.4473 71.0136 92.4473 69.4245C92.4473 67.5043 94.1026 63.8957 97.4132 58.5986C100.724 53.2354 103.141 50.5537 104.664 50.5537C105.789 50.5537 106.352 50.9841 106.352 51.8449C106.352 52.7057 104.829 55.0562 101.783 58.8966C98.7375 62.737 97.2146 65.4848 97.2146 67.1401C97.2146 68.0671 97.5457 68.5306 98.2078 68.5306C98.9361 68.5306 100.691 67.6036 103.472 65.7497C108.438 62.439 113.006 59.0952 117.178 55.7184L119.363 53.9306Z" fill="#222222"/>
<path d="M138.877 54.0299C139.407 53.6989 139.837 53.5333 140.168 53.5333C140.565 53.5333 140.764 53.7651 140.764 54.2286V54.4272C135.666 58.7311 130.269 62.7701 124.575 66.5442C118.947 70.3184 115.371 72.2054 113.848 72.2054C112.325 72.2054 111.034 71.9075 109.975 71.3116C108.982 70.7819 108.485 70.1528 108.485 69.4245C108.485 68.6961 108.684 68.1002 109.081 67.6367C109.478 67.107 109.842 66.8422 110.173 66.8422C110.505 66.8422 111.034 67.3719 111.763 68.4313C112.557 69.4245 113.319 69.9211 114.047 69.9211C115.57 69.9211 116.762 68.2989 117.622 65.0544C118.483 61.81 118.914 59.5918 118.914 58.4C118.914 57.1419 118.814 56.5129 118.616 56.5129C118.483 56.5129 118.351 56.5791 118.218 56.7116L115.338 58.9959L114.941 57.5061C119.112 54.1955 121.529 51.9773 122.191 50.8517C122.588 49.7923 123.151 49.2626 123.88 49.2626C124.343 49.2626 124.575 49.4281 124.575 49.7592C124.575 50.0902 124.343 50.8186 123.88 51.9442C123.416 53.0036 122.787 55.4535 121.993 59.2939C121.264 63.1342 120.9 65.3524 120.9 65.9483C120.9 66.5442 121.066 66.8422 121.397 66.8422C126.032 63.995 130.931 60.4526 136.096 56.215L138.877 54.0299Z" fill="#222222"/>
<path d="M164.523 54.0299C164.987 53.6989 165.417 53.5333 165.814 53.5333C166.212 53.5333 166.41 53.7651 166.41 54.2286V54.4272C159.524 60.1215 153.797 64.3923 149.228 67.2395C144.659 70.0866 140.521 71.5102 136.813 71.5102C133.833 71.5102 132.344 70.0535 132.344 67.1401C132.344 62.8363 134.529 58.4331 138.899 53.9306C143.269 49.3619 146.944 47.0775 149.923 47.0775C151.578 47.0775 152.406 48.0045 152.406 49.8585C152.075 53.5002 146.844 58.4 136.714 64.5578V65.551C136.714 67.736 137.839 68.8286 140.09 68.8286C142.408 68.8286 144.891 68.0671 147.539 66.5442C152.704 63.4984 157.538 60.0222 162.04 56.1156L164.523 54.0299ZM147.341 50.1565C145.884 50.1565 143.997 51.3814 141.68 53.8313C139.428 56.2812 137.905 59.0621 137.111 62.1741C140.289 60.254 142.971 58.2345 145.156 56.1156C147.341 53.9306 148.433 52.4077 148.433 51.5469C148.433 50.62 148.069 50.1565 147.341 50.1565Z" fill="#222222"/>
</svg>
