<svg width="40" height="40" viewBox="0 0 40 40" fill="none" xmlns="http://www.w3.org/2000/svg">
<path d="M20 3.33331C15.6333 3.33331 12.0833 6.88331 12.0833 11.25C12.0833 15.5333 15.4333 19 19.8 19.15C19.9333 19.1333 20.0667 19.1333 20.1667 19.15C20.2 19.15 20.2167 19.15 20.25 19.15C20.2667 19.15 20.2667 19.15 20.2833 19.15C24.55 19 27.9 15.5333 27.9167 11.25C27.9167 6.88331 24.3667 3.33331 20 3.33331Z" fill="#222222"/>
<path d="M28.4667 23.5833C23.8167 20.4833 16.2333 20.4833 11.55 23.5833C9.43333 25 8.26666 26.9166 8.26666 28.9666C8.26666 31.0166 9.43333 32.9166 11.5333 34.3166C13.8667 35.8833 16.9333 36.6666 20 36.6666C23.0667 36.6666 26.1333 35.8833 28.4667 34.3166C30.5667 32.9 31.7333 31 31.7333 28.9333C31.7167 26.8833 30.5667 24.9833 28.4667 23.5833Z" fill="#222222"/>
</svg>
